PathFileType	4	(X/Y/Z)	C:/Users/beibeiliu/ov580/test_trc/User2\sequence.12_training_dense_right.trc
DataRate	CameraRate	NumFrames	NumMarkers	Units	OrigDataRate	OrigDataStartFrame	OrigNumFrames
120	120	10	19	mm	120	279	446
Frame#	Time	ThumbCMC			ThumbMCP			ThumbIP			ThumbTip			IndexMCP			IndexPIP			IndexTip			MiddleMCP			MiddlePIP			MiddleTip			RingMCP			RingPIP			RingTip			PinkyMCP			PinkyPIP			PinkyTip			BackHand1			BackHand2			BackHand3	
		X0	Y0	Z0	X1	Y1	Z1	X2	Y2	Z2	X3	Y3	Z3	X4	Y4	Z4	X5	Y5	Z5	X6	Y6	Z6	X7	Y7	Z7	X8	Y8	Z8	X9	Y9	Z9	X10	Y10	Z10	X11	Y11	Z11	X12	Y12	Z12	X13	Y13	Z13	X14	Y14	Z14	X15	Y15	Z15	X16	Y16	Z16	X17	Y17	Z17	X18	Y18	Z18	
278	2.31667	142.014	10.808	80.3149	123.447	21.6426	51.0559	104.346	23.9216	20.8815	88.5324	11.2265	1.30537	148.201	-20.5939	5.85552	122.577	-13.3994	-14.7699	93.2124	-5.24652	-12.6349	149.147	-51.844	7.11039	145.22	-49.9207	-23.3116	134.488	-50.0126	-54.6445	137.698	-69.8023	15.8061	132.517	-78.2251	-8.70961	125.333	-80.4263	-37.3583	116.695	-81.4581	40.1863	112.022	-94.9542	17.1222	112.523	-106.651	-9.53962	140.315	-61.65	73.551	142.987	-59.9271	110.041	162.108	-28.8827	82.9834	
279	2.325	122.487	12.6493	87.0625	97.9535	20.7201	59.2931	78.6158	19.6818	29.1028	68.1776	4.09834	9.64078	135.542	-10.6623	8.73387	108.414	-9.99957	-10.5521	78.9913	-7.22989	-10.0468	149.477	-34.2922	7.82236	143.606	-34.1168	-26.7477	134.506	-34.3064	-53.4279	145.3	-57.0567	15.326	142.646	-64.6365	-11.4725	136.995	-67.5457	-37.7355	130.057	-79.7741	36.8826	130.622	-88.5092	11.0671	136.189	-93.7292	-14.4612	147.224	-55.7328	76.8124	151.224	-49.9202	106.314	157.01	-18.1904	85.4021	
280	2.33333	99.9239	8.54828	93.5735	75.2913	7.07619	67.1391	58.163	-1.39875	32.7087	50.0451	-15.1377	11.3374	120.129	-3.93926	13.51	92.0133	-10.0663	-7.60354	62.2191	-21.4427	-3.87727	141.999	-19.2522	5.33049	135.751	-21.2848	-22.2405	126.335	-22.6666	-55.0017	146.028	-42.7281	13.2764	145.927	-47.3378	-10.142	141.615	-54.1122	-40.4707	141.738	-67.0268	36.1725	146.369	-75.8461	7.42117	150.352	-76.5308	-18.604	149.552	-42.0914	71.9325	151.722	-42.2234	105.908	142.607	-6.69942	85.4149	
281	2.34167	83.1515	-3.9585	95.785	58.5041	-11.8423	67.9268	45.5065	-22.3483	37.5757	39.8712	-35.557	14.3253	102.591	-1.75838	17.9157	78.5248	-15.0849	-3.0555	59.0057	-39.4229	-1.93322	130.08	-9.94259	11.5978	120.674	-7.54734	-22.5875	115.798	-15.0048	-51.5121	143.427	-34.6886	18.9921	143.75	-35.1581	-11.8108	140.183	-37.279	-41.778	146.9	-55.6517	34.7188	153.4	-58.7854	7.55967	162.791	-61.0163	-19.2486	144.024	-32.8705	73.977	146.71	-33.0108	106.739	126.904	-1.96804	90.2932	
282	2.35	70.3055	-18.672	97.946	46.5088	-30.1895	71.2235	36.7919	-42.0544	41.7964	39.1284	-54.5826	16.8116	82.6383	-5.87382	18.582	71.1602	-26.7564	-1.66415	57.9977	-57.6728	-0.454818	116.801	-6.27206	10.9009	108.41	-5.54187	-20.475	102.255	-8.93868	-50.6892	137.124	-24.0473	15.1905	138.943	-25.0952	-10.4134	137.06	-24.29	-38.622	148.227	-46.2431	35.2308	157.281	-45.3254	5.93206	163.886	-40.3457	-16.8661	141.221	-27.2117	75.9925	140.415	-28.8338	110.605	112.522	-2.87126	92.4437	
283	2.35833	65.6483	-33.1856	98.7084	45.7724	-46.5234	69.624	38.9096	-58.6336	39.2485	44.7408	-67.9425	15.0412	75.2805	-12.1684	22.8983	65.1883	-38.101	-2.00237	57.6559	-70.0326	-1.14292	105.849	-6.93016	16.6933	100.752	-7.59743	-17.5497	96.1731	-10.0325	-48.6476	134.242	-22.8945	19.3981	135.566	-20.4053	-9.44237	136.093	-19.0604	-35.709	149.135	-43.4062	36.3474	158.691	-41.0624	10.5251	163.507	-34.3193	-12.1642	133.66	-26.4895	76.3277	138.863	-30.5785	109.945	103.37	-9.64238	95.7095	
284	2.36667	65.1878	-42.1483	98.5385	44.2756	-56.347	68.9383	37.5748	-68.2127	40.283	45.051	-78.1866	9.91704	71.9505	-19.7973	22.7528	63.3082	-43.649	-2.59391	59.791	-78.2264	-1.42865	101.513	-10.6232	15.1939	95.5303	-9.94631	-18.4452	90.5099	-12.4484	-49.4256	130.463	-22.327	17.9357	133.881	-22.3738	-6.03087	133.052	-17.5942	-36.9133	145.987	-40.5715	32.7994	154.793	-37.115	7.52944	163.758	-32.7494	-10.7254	132.587	-29.0377	75.5679	134.63	-30.2963	111.956	102.271	-15.6089	96.0099	
285	2.375	64.1623	-46.3467	94.3349	47.4259	-62.1995	67.5361	39.7613	-75.6597	37.1715	49.3061	-85.2132	11.9391	71.2985	-27.0671	19.3708	68.3719	-51.9141	-3.85569	64.3239	-84.9956	-2.04766	99.1131	-15.6401	15.7261	94.5531	-16.7022	-19.4334	94.0131	-19.1428	-49.0498	130.333	-26.9087	16.7705	132.295	-24.782	-5.26677	136.761	-22.9428	-36.1073	149.913	-43.8025	32.7606	157.464	-40.795	8.69187	167.409	-35.359	-7.08221	127.74	-27.9366	77.2642	131.073	-30.6912	106.325	96.2227	-19.4588	95.439	
286	2.38333	63.8045	-52.0784	92.2654	45.6389	-69.2299	65.6314	40.0986	-84.5621	34.9091	50.4647	-94.8184	10.3551	74.9671	-35.0908	16.39	69.3148	-58.3292	-4.75962	68.158	-92.5436	-1.73084	102.08	-22.6387	9.05602	100.311	-25.5376	-19.508	93.014	-28.8039	-52.4043	129.999	-31.1426	15.1586	132.63	-30.8546	-10.4717	134.145	-30.8642	-35.5296	149.728	-49.4689	35.4933	157.905	-47.8191	11.3	170.213	-40.3579	-9.9311	128.948	-33.2791	76.0077	129.718	-33.6461	108.259	92.8586	-21.3888	91.4659	
287	2.39167	59.6751	-56.4297	94.6159	45.265	-76.9091	66.9987	40.3841	-92.9431	36.5662	54.479	-103.437	13.841	73.7534	-43.3519	14.7961	66.8261	-70.0814	-5.47994	72.0132	-106.077	1.97517	98.5265	-31.3351	11.1584	98.5509	-36.0175	-20.4927	93.6435	-42.8839	-55.7649	132.129	-41.0407	16.4158	133.664	-40.8323	-12.7542	139.412	-41.4094	-41.7792	151.166	-55.6968	32.7962	161.335	-55.5901	7.8604	166.549	-50.6593	-7.77201	130.093	-36.0738	74.2184	129.52	-36.1807	103.447	90.1917	-27.9968	88.793	
